<?xml version="1.0" encoding="UTF-8" standalone="no"?>
<!-- Created with Inkscape (http://www.inkscape.org/) -->

<svg
   xmlns:dc="http://purl.org/dc/elements/1.1/"
   xmlns:cc="http://creativecommons.org/ns#"
   xmlns:rdf="http://www.w3.org/1999/02/22-rdf-syntax-ns#"
   xmlns:svg="http://www.w3.org/2000/svg"
   xmlns="http://www.w3.org/2000/svg"
   xmlns:sodipodi="http://sodipodi.sourceforge.net/DTD/sodipodi-0.dtd"
   xmlns:inkscape="http://www.inkscape.org/namespaces/inkscape"
   width="126.20625mm"
   height="106.89166mm"
   viewBox="0 0 126.20624 106.89166"
   version="1.1"
   id="svg8"
   inkscape:version="0.92.5 (2060ec1f9f, 2020-04-08)"
   sodipodi:docname="logo.svg">
  <defs
     id="defs2">
    <filter
       style="color-interpolation-filters:sRGB"
       inkscape:label="Lightness-Contrast"
       id="filter854">
      <feColorMatrix
         values="1.98361 0 0 0.432026 -0.491803 0 1.98361 0 0.432026 -0.491803 0 0 1.98361 0.432026 -0.491803 0 0 0 1 0"
         id="feColorMatrix852" />
    </filter>
  </defs>
  <sodipodi:namedview
     id="base"
     pagecolor="#ffffff"
     bordercolor="#666666"
     borderopacity="1.0"
     inkscape:pageopacity="0.0"
     inkscape:pageshadow="2"
     inkscape:zoom="0.69072747"
     inkscape:cx="8.5511329"
     inkscape:cy="286.82693"
     inkscape:document-units="mm"
     inkscape:current-layer="g4604"
     showgrid="false"
     inkscape:window-width="1366"
     inkscape:window-height="698"
     inkscape:window-x="0"
     inkscape:window-y="34"
     inkscape:window-maximized="1" />
  <metadata
     id="metadata5">
    <rdf:RDF>
      <cc:Work
         rdf:about="">
        <dc:format>image/svg+xml</dc:format>
        <dc:type
           rdf:resource="http://purl.org/dc/dcmitype/StillImage" />
        <dc:title />
      </cc:Work>
    </rdf:RDF>
  </metadata>
  <g
     inkscape:label="Tavolo 1"
     inkscape:groupmode="layer"
     id="layer1"
     transform="translate(-130.5502,-79.159889)">
    <g
       id="g4604"
       transform="translate(95.379513,1.9152513)">
      <path
         style="fill:#cccfb3;stroke-width:0.26458332"
         d="M 35.170692,130.69047 V 78.302971 h 63.103125 63.103123 v 52.387499 52.3875 H 98.273817 35.170692 Z"
         id="path4610"
         inkscape:connector-curvature="0" />
      <path
         style="fill:#52c116;stroke-width:0.26458332"
         d="M 35.170692,130.69047 V 78.302971 h 63.103125 63.103123 v 52.387499 52.3875 H 98.273817 35.170692 Z m 104.711758,39.09047 c 1.60901,-0.74544 3.31946,-2.75448 3.89034,-4.56944 0.39332,-1.25047 0.4414,-2.0081 0.29079,-4.58201 -0.14619,-2.49854 -0.0999,-3.30978 0.24393,-4.27444 0.23341,-0.65484 0.35874,-1.45256 0.27852,-1.77271 -0.0802,-0.32015 -0.78442,-1.27265 -1.56487,-2.11667 l -1.419,-1.53457 0.611,-2.38125 c 0.46413,-1.80888 0.579,-2.82643 0.47791,-4.23334 -0.20947,-2.91517 -0.25894,-3.04271 -1.18031,-3.04271 -1.73745,0 -2.43044,1.22637 -1.28087,2.26671 0.37715,0.34132 0.50775,0.70582 0.41759,1.16549 -0.0976,0.49772 0.0497,0.82128 0.5757,1.26464 l 0.70689,0.59579 -1.79681,-0.0425 c -0.98824,-0.0234 -1.92288,0.0836 -2.07698,0.23765 -0.15409,0.15409 -0.28017,0.69362 -0.28017,1.19895 0,0.90137 -0.0243,0.92166 -1.28224,1.07064 -0.70522,0.0835 -1.6399,0.33682 -2.07706,0.56289 -0.43716,0.22606 -1.4509,0.41102 -2.25275,0.41102 -1.00324,0 -1.56432,0.1295 -1.79908,0.41522 -0.18764,0.22838 -0.63882,0.67449 -1.00262,0.99138 -1.70741,1.48722 -3.09951,3.05786 -3.56318,4.02017 -0.58614,1.21649 -0.90085,4.36282 -0.4364,4.36282 0.16985,0 0.29541,0.4649 0.29541,1.09378 0,1.16502 0.45783,3.05547 0.87247,3.60257 0.40596,0.53564 1.46151,0.38642 1.87154,-0.26458 0.20623,-0.32742 0.45912,-1.3076 0.56199,-2.17816 0.29878,-2.52857 1.10355,-4.31642 2.63014,-5.84301 3.11857,-3.11857 7.52237,-2.90394 10.31382,0.50267 0.84197,1.02751 0.91194,1.23144 0.68907,2.00853 -0.13643,0.47569 -0.35709,1.00219 -0.49037,1.16999 -0.13328,0.16779 -0.3254,0.87883 -0.42694,1.58008 -0.12815,0.88512 -0.38927,1.45145 -0.85391,1.85208 -0.36812,0.3174 -0.91489,1.09672 -1.21505,1.73183 -0.66419,1.40538 -1.80321,2.15024 -3.29013,2.15156 -0.7546,8e-4 -1.18936,0.14042 -1.35441,0.43534 -0.24022,0.42926 -0.89439,0.41869 -1.96603,-0.0318 -0.69613,-0.2926 -0.59998,0.70334 0.13229,1.37031 1.81873,1.65653 4.27865,1.94994 6.74978,0.80507 z m -81.296488,0.30494 c 1.5782,-0.3974 3.102298,-1.77012 3.848992,-3.46671 0.515578,-1.17146 0.647007,-2.05396 0.803426,-5.39473 0.199821,-4.26779 0.358912,-4.84091 1.881672,-6.77872 0.424979,-0.54082 0.828709,-1.37426 0.897175,-1.85209 0.108707,-0.75868 7.94e-4,-0.96099 -0.851548,-1.59639 -1.736765,-1.29471 -4.323592,-0.78611 -5.581901,1.09746 -0.793949,1.18847 -0.764728,2.47857 0.08914,3.93559 0.650055,1.10923 0.68409,1.34165 0.591709,4.04066 -0.08401,2.45444 -0.177348,2.95131 -0.653077,3.47652 -0.305282,0.33704 -0.692101,1.02178 -0.859598,1.52165 -0.402103,1.20003 -1.036548,1.86927 -1.772076,1.86927 -0.346855,0 -0.81958,0.30365 -1.124607,0.72239 l -0.526224,0.72239 -0.951053,-0.45353 c -0.900397,-0.42937 -0.950604,-0.42909 -0.942637,0.005 0.01604,0.87448 1.005427,1.70171 2.621967,2.19223 0.9605,0.29146 1.224602,0.28715 2.528638,-0.0412 z m 35.787651,-1.62614 c 0.963848,-1.02892 1.171106,-2.0632 1.285719,-6.41614 0.0613,-2.32834 0.246435,-4.65006 0.411405,-5.15938 0.373359,-1.15271 1.462096,-2.91042 1.802728,-2.91042 0.13996,0 0.450795,-0.37964 0.690743,-0.84365 l 0.436274,-0.84366 0.372721,0.71136 c 0.204997,0.39126 0.536345,0.71137 0.736327,0.71137 0.41109,0 1.7362,-1.76774 3.54959,-4.73523 l 1.22928,-2.01164 0.023,-4.31054 c 0.0209,-3.92425 -0.1123,-5.00013 -0.53457,-4.31688 -0.0832,0.13462 -0.16388,0.94024 -0.17928,1.79026 -0.0485,2.67773 -0.93975,5.83323 -2.24009,7.93148 -0.64355,1.03844 -1.17009,2.00612 -1.17009,2.15041 0,0.14429 -0.16527,0.39951 -0.36727,0.56716 -0.28721,0.23836 -0.543668,0.15637 -1.176482,-0.3761 -1.236084,-1.0401 -1.242079,-1.4493 -0.05582,-3.80866 0.588725,-1.17091 1.070402,-2.34894 1.070402,-2.61785 0,-0.2689 0.30074,-0.77144 0.66829,-1.11674 0.69318,-0.65121 1.44838,-1.95827 1.44838,-2.50677 0,-0.17337 -0.23509,-0.52797 -0.52241,-0.788 -0.45205,-0.40909 -0.63027,-0.4281 -1.32316,-0.1411 -1.011788,0.4191 -1.467671,0.09 -1.678954,-1.21198 -0.118441,-0.72986 -0.719495,-1.53203 -2.672567,-3.56686 -1.385869,-1.44387 -2.694051,-2.96227 -2.907069,-3.3742 -0.244936,-0.47366 -0.365136,-1.36025 -0.326988,-2.41186 0.0548,-1.51082 0.125854,-1.69722 0.776983,-2.03838 0.394166,-0.20653 0.716666,-0.48917 0.716666,-0.6281 0,-0.13892 -1.22039,-0.84228 -2.711979,-1.56301 -4.147497,-2.00407 -5.219404,-2.80681 -6.210268,-4.65084 -0.468852,-0.87255 -0.855805,-1.80755 -0.859896,-2.07778 -0.0041,-0.27024 0.341659,-1.22281 0.768337,-2.11684 0.756486,-1.58507 2.358821,-3.23861 4.383598,-4.52366 0.436562,-0.27707 1.545616,-1.10526 2.464562,-1.84043 1.526984,-1.2216 1.623782,-1.35765 1.124479,-1.58044 -0.300485,-0.13408 -0.546335,-0.40713 -0.546335,-0.60678 0,-0.42194 -1.249836,-0.96371 -1.76616,-0.76558 -0.495896,0.19029 -1.898095,2.47036 -2.258121,3.67184 -0.183893,0.6137 -0.619638,1.22372 -1.115325,1.5614 -1.425231,0.97092 -4.120811,3.74846 -4.120811,4.24609 0,0.26399 0.192286,0.77344 0.427305,1.13213 0.39335,0.60033 0.39335,0.70397 0,1.3043 -0.565629,0.86326 -0.541023,1.80875 0.06126,2.35381 0.268708,0.24318 0.626536,0.90266 0.795171,1.46551 0.329273,1.09902 2.076696,2.75052 3.404229,3.21736 0.602134,0.21174 0.829278,0.55865 1.248892,1.90739 0.485484,1.56046 1.289664,2.68521 2.335638,3.26669 0.257006,0.14287 0.755992,1.05573 1.108856,2.02857 0.352861,0.97284 1.022053,2.32181 1.487088,2.99772 0.873831,1.27007 1.669465,3.42675 1.415674,3.83739 -0.183843,0.29747 -1.599179,0.30161 -2.628567,0.008 -0.435602,-0.12438 -1.027472,-0.14308 -1.31527,-0.0416 -0.49558,0.17482 -0.488582,0.20342 0.132292,0.54061 0.360558,0.19581 1.488996,0.42287 2.507641,0.50457 l 1.852084,0.14855 0.08632,1.19063 c 0.1164,1.60545 -0.362628,3.0838 -1.17084,3.61336 -0.366167,0.23992 -0.892445,0.88056 -1.169508,1.42365 -0.316604,0.62059 -1.171022,1.45595 -2.299862,2.24855 -2.302185,1.61644 -3.252121,2.49864 -3.248152,3.01654 0.0019,0.22744 0.864947,1.29147 1.918229,2.36452 l 1.91506,1.95101 0.03245,5.36853 c 0.01786,2.95269 0.11254,5.79545 0.210426,6.31723 0.210992,1.12468 0.832585,1.2556 1.677752,0.35338 z m 10.132567,0.0583 c 0.885,-0.47364 1.29501,-1.71977 1.56021,-4.74186 0.28344,-3.22997 0.78904,-4.70565 2.04405,-5.96593 0.9433,-0.94725 2.4671,-3.20437 2.46503,-3.65128 -0.004,-0.87484 -0.60006,-2.26314 -1.30102,-3.03059 -0.71283,-0.78045 -0.92443,-0.85862 -2.32061,-0.85728 -2.12893,0.002 -3.36953,0.404 -4.1651,1.34948 -0.84566,1.00501 -0.90371,2.59278 -0.15511,4.24255 0.45995,1.01365 0.52424,1.74636 0.53064,6.04816 0.006,4.31192 0.26602,6.87917 0.69563,6.87917 0.0755,0 0.36631,-0.12259 0.64628,-0.27242 z m -31.840744,-0.58747 c 0.299927,-0.32743 0.74793,-1.30969 0.995564,-2.18282 0.54532,-1.92271 1.305097,-3.2219 2.016186,-3.44759 0.290475,-0.0922 1.504955,0.0896 2.698843,0.40388 1.714013,0.45127 2.326322,0.51191 2.910366,0.28822 0.944255,-0.36165 1.760233,-2.10417 1.76807,-3.77572 0.0079,-1.68751 0.321395,-2.39125 1.741474,-3.90943 l 1.214041,-1.2979 -0.928695,-1.85049 -0.928699,-1.85049 0.64447,-0.42228 c 0.823357,-0.53948 0.823714,-0.93924 7.94e-4,-0.93924 -0.408289,0 -0.704202,0.19085 -0.809289,0.52195 -0.128114,0.40365 -0.387006,0.51512 -1.14231,0.49183 -2.587445,-0.0798 -10.541889,0.38014 -11.368773,0.65734 -2.020665,0.67741 -2.684679,3.23229 -1.386144,5.33336 0.577252,0.93402 0.632751,1.37294 0.799915,6.32615 0.0988,2.92737 0.270597,5.53086 0.381778,5.78552 0.273463,0.62636 0.73783,0.58224 1.392362,-0.13229 z m 3.214116,-7.93536 c -1.374648,-1.23051 -1.650759,-1.87331 -1.283136,-2.98721 0.448556,-1.35914 1.660319,-2.09935 3.436776,-2.09935 1.123339,0 1.679419,0.15017 2.385997,0.64431 1.200036,0.83923 1.309296,1.01801 1.314119,2.15014 0.0047,1.10441 -0.392126,1.52936 -2.17877,2.33312 -2.088017,0.93934 -2.586008,0.93378 -3.674986,-0.041 z m -24.928536,1.84994 -0.03762,-4.82865 0.769139,-1.51793 c 0.423027,-0.83487 0.988574,-1.71652 1.256771,-1.95924 0.729031,-0.65976 0.592141,-1.43336 -0.45549,-2.57409 -0.919861,-1.0016 -0.970862,-1.02033 -2.31384,-0.84994 -2.388744,0.30308 -3.035282,0.61343 -3.245814,1.55803 -0.302051,1.35523 -0.193532,2.96245 0.259126,3.8378 0.301039,0.58214 0.481952,2.06988 0.639583,5.25961 0.121246,2.45345 0.358943,4.7065 0.530106,5.02468 0.29608,0.5504 0.817776,0.76281 2.068868,0.84234 0.561211,0.0357 0.566413,-0.0114 0.529167,-4.79261 z m 66.342554,4.26512 c 0.97189,-0.44282 1.66159,-2.34484 2.12126,-5.84991 0.43709,-3.3329 0.69367,-4.13212 1.97118,-6.13993 0.45793,-0.71971 0.8326,-1.52735 0.8326,-1.79475 0,-0.26741 -0.41275,-0.89894 -0.91722,-1.40341 -0.75743,-0.75743 -1.11219,-0.91723 -2.0363,-0.91723 -2.41757,0 -3.92565,2.03154 -3.92565,5.28823 0,0.90033 -0.1537,1.69301 -0.38846,2.00339 -0.45326,0.59927 -0.5126,1.65211 -0.14725,2.61303 0.38629,1.01604 -0.0191,0.80306 -0.99403,-0.52226 -0.95417,-1.29706 -1.64526,-1.53527 -1.64526,-0.5671 0,2.2194 1.77521,6.15531 3.23848,7.18023 0.6957,0.48729 1.02058,0.50614 1.89065,0.10971 z m 17.94277,-7.17554 c 0.91665,-0.9095 1.90477,-1.78851 2.19581,-1.95334 0.29104,-0.16484 0.44203,-0.39088 0.33552,-0.50233 -0.41383,-0.43303 -4.43656,3.08685 -4.43656,3.88199 0,0.41053 0.21977,0.246 1.90523,-1.42632 z M 83.967479,147.20778 c 0.08867,-0.35327 0.3284,-0.64231 0.532746,-0.64231 0.204343,0 0.725279,-0.29766 1.157632,-0.66146 0.432355,-0.3638 0.90316,-0.66146 1.046236,-0.66146 0.143076,0 0.402426,-0.17144 0.576334,-0.38099 0.173905,-0.20954 0.575437,-0.4179 0.892292,-0.46302 0.705929,-0.10051 0.765325,-0.83209 0.0783,-0.9644 -0.273788,-0.0527 -0.750038,0.0242 -1.058333,0.17083 -0.308295,0.14667 -0.768895,0.33328 -1.023556,0.41466 -0.254662,0.0814 -0.463021,0.37694 -0.463021,0.65677 0,0.32205 -0.242777,0.56972 -0.661459,0.6748 -0.363802,0.0913 -0.661458,0.27871 -0.661458,0.41644 0,0.13773 -0.359939,0.61863 -0.799862,1.06867 -0.439925,0.45003 -0.733769,0.92519 -0.652986,1.0559 0.248272,0.40171 0.867016,-0.007 1.037135,-0.68443 z m 3.635695,-4.61372 c 0.049,-0.14698 0.624464,-0.35801 1.278821,-0.46895 1.039328,-0.17622 1.200341,-0.29315 1.273604,-0.92489 0.105317,-0.90814 -0.41211,-1.13576 -1.651794,-0.72662 -0.873773,0.28837 -2.26853,1.60621 -2.26853,2.14342 0,0.33272 1.256369,0.31164 1.367899,-0.023 z m 14.563936,-5.15671 c 1.00645,-0.6839 1.79525,-0.85828 1.79525,-0.39688 0,0.75886 0.46923,0.0623 1.01878,-1.51234 0.34109,-0.97731 1.08483,-2.54738 1.65277,-3.48903 0.56794,-0.94165 1.03262,-1.91738 1.03262,-2.16828 0,-0.84218 1.13989,-3.53892 1.80098,-4.26072 0.36005,-0.39311 0.99364,-0.78921 1.40798,-0.88021 0.81501,-0.17901 1.81812,-1.25498 1.81812,-1.95019 0,-0.38592 0.43922,-1.68529 1.2835,-3.79704 0.16,-0.40018 0.47993,-0.72761 0.71096,-0.72761 0.24549,0 0.39624,-0.19242 0.36276,-0.46302 -0.0315,-0.25466 0.0117,-0.64161 0.096,-0.85989 0.40341,-1.04429 0.893,-5.55625 0.6029,-5.55625 -0.4855,0 -1.2555,0.63004 -1.47475,1.20671 -0.34081,0.89639 -0.86786,0.83279 -0.68145,-0.0822 0.27083,-1.32942 -1.43342,-2.62589 -1.82597,-1.38907 -0.0924,0.29105 -0.39806,0.52917 -0.67929,0.52917 -0.67909,0 -0.65505,0.16265 0.33766,2.28403 0.72342,1.54591 0.85211,2.12758 0.86999,3.93231 0.0115,1.16492 0.076,2.28926 0.14319,2.49853 0.0856,0.26663 -0.16802,0.43122 -0.84769,0.55003 -0.53344,0.0932 -2.43844,1.04302 -4.23333,2.11059 -4.20482,2.50094 -4.08562,2.40472 -3.50509,2.82921 0.61835,0.45215 0.23221,0.81598 -0.42826,0.40352 -0.28245,-0.1764 -0.69019,-0.32072 -0.90609,-0.32072 -0.2159,0 -0.664,-0.36909 -0.99578,-0.8202 -0.49905,-0.67856 -2.195603,-1.82563 -2.70015,-1.82563 -0.44118,0 -2.106031,1.84024 -2.55351,2.82251 -0.577215,1.26707 -0.499756,1.6754 0.317815,1.6754 0.601459,0 1.597898,0.47171 1.865408,0.88307 0.09824,0.15107 0.0089,0.51693 -0.198438,0.81301 -0.572193,0.81692 -0.473535,1.67646 0.21825,1.9015 0.781431,0.2542 2.644015,0.146 2.963335,-0.17215 0.40705,-0.40555 1.19995,-0.28923 2.0229,0.29676 1.42742,1.0164 0.72155,2.62781 -1.1511,2.62781 -0.83427,0 -1.22435,0.18057 -1.94336,0.89959 -1.045474,1.04547 -1.100796,1.41909 -0.35122,2.37202 0.67872,0.86286 0.93086,0.86703 2.1543,0.0357 z m 3.11289,-7.95139 c -0.44372,-1.16707 -0.23799,-1.82543 0.60059,-1.92192 0.66792,-0.0769 0.7276,-0.01 0.7276,0.81889 0,0.56272 -0.19673,1.08065 -0.52244,1.37541 -0.50671,0.45857 -0.53096,0.45037 -0.80575,-0.27238 z m -4.87922,-0.24211 -0.783443,-0.34532 0.915743,-0.55825 c 0.88864,-0.54173 2.37095,-0.76623 2.37095,-0.35908 0,0.27489 -1.29872,1.65616 -1.53207,1.62945 -0.10325,-0.0118 -0.54028,-0.17688 -0.97118,-0.3668 z m 13.1332,-11.84176 c -0.36515,-0.36515 -0.41496,-1.43293 -0.0766,-1.64205 0.25711,-0.1589 0.65296,0.26119 0.89922,0.95432 0.21151,0.5953 -0.40208,1.10828 -0.82262,0.68773 z M 50.385632,134.9238 c 0.552783,0 0.832449,-0.71316 1.037556,-2.64583 0.100384,-0.94588 0.413701,-2.47647 0.69626,-3.40131 0.282559,-0.92483 0.513744,-2.00098 0.513744,-2.39145 0,-0.39046 0.238125,-1.177 0.529167,-1.74786 0.291041,-0.57087 0.529166,-1.1753 0.529166,-1.34318 0,-0.16789 0.243741,-0.61512 0.541647,-0.99385 0.297905,-0.37872 0.652743,-1.37119 0.788529,-2.20549 0.337053,-2.07093 1.429645,-3.75944 2.966949,-4.58515 2.52887,-1.35831 1.900966,-1.44316 -0.945901,-0.12782 -1.18312,0.54664 -2.140028,1.1747 -2.317903,1.52135 -0.166616,0.32471 -0.743307,1.12617 -1.281538,1.78101 -1.379174,1.67799 -3.834425,5.96913 -4.314499,7.54063 -0.895224,2.93046 -1.074855,4.31986 -0.892991,6.90709 0.09905,1.40917 0.250822,2.67656 0.337259,2.81642 0.08644,0.13986 0.444831,-0.0559 0.796428,-0.43513 0.351598,-0.37919 0.808855,-0.68943 1.016127,-0.68943 z m 51.995778,-14.17243 c 0.37063,-0.97482 0.31777,-2.57807 -0.10401,-3.15489 -0.34888,-0.47711 -0.37378,-0.47321 -0.68447,0.10732 -0.3631,0.67846 -0.12975,3.72625 0.28529,3.72625 0.13483,0 0.36127,-0.3054 0.50319,-0.67868 z m -3.473905,-0.32776 c 0.373348,-0.69761 -0.06274,-1.31949 -0.607963,-0.86699 -0.30844,0.25598 -0.344286,0.46705 -0.143147,0.84288 0.332618,0.62151 0.429726,0.62462 0.75111,0.0241 z m 1.259595,-4.88053 c 1.3519,-1.8467 2.08877,-3.11667 3.15407,-5.43595 0.70478,-1.53439 0.81005,-1.95958 0.51333,-2.07345 -0.48403,-0.18573 -1.55353,0.6173 -2.14645,1.61167 -0.25679,0.43065 -0.51488,0.639 -0.57354,0.46302 -0.18058,-0.54172 -0.8442,-0.35853 -1.955918,0.53991 -0.585206,0.47295 -1.368716,1.10703 -1.741136,1.40907 l -0.677124,0.54918 0.477665,1.51861 c 0.467556,1.48649 1.272784,2.807 1.711661,2.807 0.121309,0 0.678159,-0.62508 1.237442,-1.38906 z m -1.760991,-2.0327 c 0,-0.13571 0.230793,-0.32 0.512871,-0.40953 0.28208,-0.0895 0.884732,-0.5863 1.33923,-1.10395 0.4545,-0.51764 0.89457,-0.87295 0.97795,-0.78957 0.25519,0.25518 -0.48821,1.75365 -1.0733,2.16347 -0.615135,0.43086 -1.756751,0.52156 -1.756751,0.13958 z m -8.30698,2.16499 c 0.297529,-0.96285 0.581088,-1.26075 1.323816,-1.39077 0.932495,-0.16323 1.296477,-1.32121 0.41529,-1.32121 -0.285594,0 -0.587793,0.17859 -0.671558,0.39687 -0.08376,0.21828 -0.394155,0.39688 -0.689766,0.39688 -0.356515,0 -0.537469,0.17373 -0.537469,0.51602 0,0.28381 -0.196988,0.62626 -0.43775,0.76099 -0.263436,0.14743 -0.3721,0.41606 -0.272889,0.67461 0.217308,0.56629 0.690629,0.54813 0.870326,-0.0334 z m -8.333423,-2.47575 c 0.520205,-0.5202 0.527976,-0.5866 0.11612,-0.99218 -0.409649,-0.40342 -0.46877,-0.39774 -0.822097,0.0789 -0.437356,0.59002 -0.506894,1.47079 -0.11612,1.47079 0.145521,0 0.515464,-0.25088 0.822097,-0.55752 z m 36.226074,-2.49302 c 0.25629,-0.30882 0.2656,-0.55896 0.0393,-1.05562 -0.19266,-0.42283 -0.23934,-1.52223 -0.13324,-3.13751 0.14472,-2.20307 0.0987,-2.62019 -0.40378,-3.65813 -0.31192,-0.64434 -0.56713,-1.48198 -0.56713,-1.86144 0,-0.37945 -0.29765,-1.043656 -0.66146,-1.476011 -0.3638,-0.432354 -0.66145,-0.99037 -0.66145,-1.240035 0,-0.944996 -1.64244,-3.536751 -2.67384,-4.219298 -0.56668,-0.375014 -1.03033,-0.776766 -1.03033,-0.892782 0,-0.116017 -0.20836,-0.441749 -0.46302,-0.72385 -1.50501,-1.667175 -2.71198,-3.285624 -2.71198,-3.636549 0,-0.222402 -0.22881,-0.938155 -0.50846,-1.590562 -0.47283,-1.103048 -0.60356,-1.206591 -1.86511,-1.477144 -1.68976,-0.362389 -2.9181,-0.373487 -2.9181,-0.02636 0,0.145521 0.18255,0.264584 0.40567,0.264584 0.87616,0 2.95464,1.340339 3.95996,2.553633 0.905,1.092227 1.06106,1.464831 1.07719,2.571775 0.0159,1.087473 0.1322,1.377059 0.7276,1.810777 0.49072,0.357463 0.70875,0.755489 0.70875,1.293878 0,0.539444 0.32413,1.129233 1.05833,1.925749 0.58209,0.631486 1.05834,1.268535 1.05834,1.415664 0,0.62785 1.12378,2.738451 1.40835,2.645041 0.17129,-0.0562 0.34839,-0.539494 0.39356,-1.073949 0.0942,-1.114497 0.29343,-1.197034 1.00135,-0.41479 0.37488,0.414239 0.50403,0.954003 0.50403,2.106569 0,1.50334 -0.0394,1.5896 -1.31821,2.88796 -1.0991,1.11587 -1.26944,1.41441 -1.02481,1.79604 0.29843,0.46554 1.07151,0.53402 2.14458,0.18997 0.56324,-0.18058 0.59531,-0.11985 0.59531,1.12723 0,0.91746 0.16084,1.52257 0.52917,1.99082 0.66243,0.84214 0.65962,0.94547 -0.0461,1.69669 l -0.57529,0.61236 h 0.80747 c 0.44412,0 0.95862,-0.18212 1.14336,-0.4047 z m -5.38636,-15.117518 c -0.097,-0.09701 -0.17639,-0.29942 -0.17639,-0.449792 0,-0.165789 0.12323,-0.150167 0.31308,0.03969 0.17221,0.1722 0.25158,0.374606 0.17639,0.449792 -0.0752,0.07518 -0.21607,0.05733 -0.31308,-0.03969 z M 98.882359,110.26464 c 0.466172,-0.46617 0.386757,-1.214 -0.145521,-1.37036 -0.254662,-0.0748 -0.899253,-0.21322 -1.432428,-0.30758 -0.822134,-0.14551 -1.016267,-0.084 -1.277858,0.40478 -0.251778,0.47045 -0.224121,0.66953 0.150516,1.0835 0.523267,0.5782 2.199251,0.6957 2.705291,0.18966 z m 9.557601,-1.68784 c -0.96522,-0.99585 -1.75284,-1.35442 -2.13519,-0.97207 -0.23933,0.23932 0.96582,1.35283 2.27123,2.09852 0.90091,0.51462 0.8221,-0.1379 -0.13604,-1.12645 z m -26.124929,0.0959 c -0.189854,-0.18986 -0.313089,-0.20548 -0.313089,-0.0397 0,0.35316 0.312899,0.66606 0.489479,0.48948 0.07519,-0.0752 -0.0042,-0.27759 -0.17639,-0.44979 z m -0.462266,-3.20028 c 0.285631,-0.80815 0.263128,-0.84221 -0.710719,-1.07584 -0.616897,-0.148 -0.727604,-0.0906 -0.727604,0.37705 0,0.76773 0.502335,1.6281 0.877808,1.50346 0.172051,-0.0571 0.424281,-0.41922 0.560515,-0.80467 z m 8.049699,-0.71115 c 0.421336,0 0.375803,-0.43447 -0.125743,-1.19993 -0.7117,-1.08619 -1.689362,-0.73582 -1.689362,0.60543 0,0.2313 0.204187,0.64617 0.45375,0.92193 0.40636,0.44903 0.485396,0.45811 0.756771,0.087 0.166664,-0.22792 0.438727,-0.41441 0.604584,-0.41441 z m -8.677537,-1.21079 c 0.286843,-0.34562 0.281064,-0.4582 -0.03375,-0.6574 -0.606335,-0.38368 -0.776737,-0.29307 -0.776737,0.41299 0,0.75665 0.308224,0.8496 0.810485,0.24441 z m 0.36884,-1.68134 c 0.195672,-0.3166 -0.302054,-0.6303 -0.654474,-0.41249 -0.295899,0.18288 -0.101645,0.65879 0.268899,0.65879 0.128344,0 0.301853,-0.11083 0.385575,-0.2463 z m 31.493503,-1.34639 c -0.14832,-0.24 -0.24665,-0.23268 -0.40928,0.0305 -0.27895,0.45136 -0.005,0.89481 0.33993,0.55001 0.14552,-0.14553 0.17673,-0.40674 0.0694,-0.58047 z M 86.764442,99.224053 c 0,-0.393055 -0.797187,-0.553869 -1.884077,-0.380068 -1.14142,0.18252 -1.784368,-0.296938 -1.822032,-1.358722 -0.01355,-0.382227 -0.1261,-0.281954 -0.405288,0.361106 -0.681752,1.570282 -0.566304,1.75556 1.093898,1.75556 0.814041,0 1.61122,0.08099 1.77151,0.179977 0.327784,0.202423 1.245989,-0.208675 1.245989,-0.557853 z m 0.346411,-1.980302 c 0.204832,-0.617681 0.167111,-0.83536 -0.190011,-1.096493 -0.528121,-0.386174 -1.464466,-0.199185 -1.668782,0.333258 -0.07958,0.207368 -0.0088,0.675227 0.157242,1.039686 0.414112,0.908876 1.35941,0.755293 1.701551,-0.276451 z m 18.439007,0.204534 c 0,-0.254682 -0.87962,-0.871054 -1.25677,-0.880649 -0.55233,-0.01405 -0.36977,0.522111 0.26458,0.77709 0.73563,0.295686 0.99219,0.322464 0.99219,0.103559 z m -3.3745,-2.196323 c 0.5647,-0.806213 0.36229,-3.159104 -0.31241,-3.631683 -0.74517,-0.521936 -0.69436,-0.786305 0.37962,-1.975065 0.50932,-0.56376 0.92604,-1.143737 0.92604,-1.288839 0,-0.566639 -1.07269,-0.222975 -1.62166,0.51954 -0.31854,0.430848 -0.69128,0.714065 -0.82832,0.62937 -0.37642,-0.232643 0.006,-1.709035 0.60944,-2.351067 0.65799,-0.700398 0.4455,-1.384711 -0.50375,-1.622263 -0.38413,-0.09613 -1.055607,-0.392313 -1.49217,-0.658185 -1.102804,-0.671622 -1.687364,-0.651286 -1.064445,0.03703 0.260027,0.287326 0.706985,0.596747 0.993241,0.687601 0.597458,0.189626 0.573717,0.451323 -0.322292,3.552487 -0.933326,3.23032 -0.935929,3.018843 0.04249,3.449357 1.024836,0.450935 1.354906,1.313143 0.502695,1.313143 -0.833276,0 -0.661186,0.732862 0.31133,1.325816 1.089281,0.664147 1.920821,0.668605 2.380191,0.01276 z m 4.81697,-1.24687 c 1.13566,-1.169347 1.23922,-1.943788 0.25993,-1.943788 -0.87081,0 -1.62199,0.391376 -2.68867,1.400832 -1.01035,0.95615 -0.78706,1.509585 0.60905,1.509585 0.66611,0 1.10983,-0.235709 1.81969,-0.966629 z M 86.925661,91.951076 c 0.493413,-0.569948 0.897114,-1.19977 0.897114,-1.399603 0,-0.777055 1.084977,-2.432227 1.941235,-2.961423 0.959144,-0.592784 1.762932,-0.725574 1.762932,-0.291246 0,0.477007 1.094843,0.277738 2.41159,-0.438925 0.710917,-0.386929 1.292577,-0.863179 1.292577,-1.058333 0,-0.484764 -0.371348,-0.446093 -1.565281,0.163006 -1.175356,0.599622 -1.48354,0.46853 -0.920101,-0.391385 l 0.397494,-0.606651 -1.060085,0.269078 c -0.948989,0.240879 -1.937028,1.021998 -3.503549,2.769815 -0.839274,0.936406 -2.227636,2.088535 -3.740859,3.104349 -2.30219,1.54544 -2.335125,1.877588 -0.186188,1.877588 1.271366,0 1.444229,-0.07881 2.273121,-1.03627 z m 9.776348,-4.148495 c 0.09857,-0.159485 -0.0075,-0.476679 -0.23569,-0.704876 -0.343334,-0.343334 -0.486215,-0.355719 -0.828318,-0.0718 -0.315042,0.261461 -0.341972,0.429192 -0.113176,0.704876 0.361448,0.435515 0.930929,0.470248 1.177184,0.0718 z"
         id="path4608"
         inkscape:connector-curvature="0" />
      <path
         style="fill:#181612;stroke-width:0.26618457"
         d="M 34.641525,130.69047 V 77.244638 H 98.510751 162.37997 V 130.69047 184.1363 H 98.510751 34.641525 Z m 26.122691,42.31024 c 1.457854,-0.44488 2.076925,-0.81785 3.184012,-1.91823 1.571079,-1.56156 2.230415,-3.17664 2.484583,-6.08612 0.09272,-1.06138 0.29466,-1.86151 0.488352,-1.93494 0.212683,-0.0806 0.391659,-1.03765 0.50273,-2.68818 0.296219,-4.40187 0.483526,-5.91786 0.703249,-5.69179 0.251913,0.2592 0.792207,5.36575 0.792207,7.48747 0,0.81875 0.115288,1.60254 0.2562,1.74176 0.140908,0.13922 0.377679,1.50249 0.526153,3.02948 0.313198,3.22109 0.915668,5.44252 1.569865,5.7884 1.519416,0.80334 4.869762,0.50594 5.403648,-0.47967 0.146684,-0.2708 0.345922,-1.18949 0.442746,-2.04153 0.09682,-0.85205 0.282209,-1.68292 0.411963,-1.84637 0.129752,-0.16346 0.160101,-0.4924 0.06744,-0.73098 -0.234342,-0.60336 0.360019,-1.22079 1.175172,-1.22079 0.727708,0 1.66202,0.66931 1.66202,1.19063 0,0.17317 0.246593,0.53535 0.54799,0.80483 0.301393,0.26949 0.924818,1.1885 1.385383,2.04225 1.013708,1.87909 1.756278,2.49596 3.275547,2.72106 1.332782,0.19746 4.059645,-0.28713 4.239941,-0.75349 0.194497,-0.50309 -0.280315,-3.41222 -0.721856,-4.42277 -0.221341,-0.50658 -0.638216,-1.26549 -0.926387,-1.68648 -0.288173,-0.42098 -0.470539,-0.90295 -0.405255,-1.07103 0.06528,-0.16808 -0.186127,-0.58854 -0.558687,-0.93434 -0.82565,-0.76636 -0.838844,-0.99403 -0.102485,-1.76845 0.475707,-0.5003 0.516253,-0.67443 0.235007,-1.00924 -0.451543,-0.53755 0.03666,-1.13685 1.017314,-1.24883 0.800616,-0.0914 0.798016,-0.0687 0.336167,-2.93508 -0.325187,-2.01821 -0.880626,-3.49735 -1.609793,-4.28691 -0.270618,-0.29302 -0.581685,-0.82378 -0.691258,-1.17946 -0.109577,-0.35568 -0.45022,-0.8475 -0.756991,-1.09293 -0.55356,-0.44286 -0.547243,-0.45609 0.837937,-1.75454 0.767634,-0.71956 1.395699,-1.46659 1.395699,-1.66006 0,-0.27772 -0.09863,-0.26949 -0.468641,0.0391 -0.610459,0.50915 -2.610559,1.12733 -2.959018,0.91455 -0.417319,-0.25482 -0.07588,-1.12432 0.571554,-1.4555 0.318915,-0.16314 1.122129,-0.70552 1.784923,-1.20531 0.662795,-0.49979 1.415969,-0.91661 1.673723,-0.92628 0.669528,-0.0251 1.558347,-0.98493 1.367374,-1.47662 -0.08817,-0.227 0.03502,-0.62597 0.273743,-0.8866 0.238724,-0.26062 0.479113,-0.85628 0.534193,-1.32369 0.133828,-1.1356 0.271925,-1.22437 1.269568,-0.81609 0.468074,0.19155 1.646891,0.41594 2.619592,0.49863 l 1.768547,0.15035 0.08322,1.29545 c 0.0989,1.53944 -0.302062,2.62636 -1.17804,3.19344 -0.351427,0.2275 -0.878738,0.87801 -1.171804,1.44557 -0.366587,0.70995 -1.222703,1.51225 -2.743864,2.57139 -3.019298,2.10223 -3.246187,2.345 -2.859242,3.05934 0.170666,0.31507 0.859573,1.15303 1.530899,1.86212 l 1.220593,1.28926 0.159561,3.09276 c 0.08775,1.70101 0.05624,4.22385 -0.07002,5.60629 -0.291637,3.19305 -0.142255,4.27895 0.907827,6.59924 0.655941,1.44939 1.007955,1.92025 1.547678,2.07021 1.041765,0.28943 3.834899,0.19208 4.494428,-0.15666 0.927441,-0.49039 1.158409,-2.38883 1.158409,-9.52153 v -6.53895 l 0.971248,-1.42494 c 0.87399,-1.28222 0.99969,-1.37475 1.25512,-0.92382 0.16242,0.28675 0.36712,3.33123 0.47854,7.11701 0.19338,6.5711 0.37923,8.13795 1.20799,10.18439 0.47486,1.17257 0.98146,1.41058 3.04978,1.4329 2.03435,0.022 2.5545,-0.23486 3.02035,-1.49126 0.23895,-0.64443 0.43224,-2.07009 0.45043,-3.32215 0.0326,-2.24411 0.32098,-3.49527 0.80563,-3.49527 0.36869,0 1.81603,1.97422 2.52163,3.43958 0.62768,1.30356 2.47902,3.87032 3.24445,4.49824 0.52544,0.43103 4.21539,0.5643 5.52983,0.19971 0.92754,-0.25727 1.2988,-1.33502 1.2988,-3.77038 0,-2.11441 0.32665,-2.65617 1.75824,-2.91598 1.00562,-0.1825 1.20148,-0.0284 2.13305,1.67871 1.03984,1.90545 3.47021,4.08217 5.40534,4.84119 1.32501,0.51971 2.03328,0.6076 4.89652,0.6076 4.08285,0 5.64187,-0.50027 7.89262,-2.53265 2.75424,-2.48703 3.94579,-6.27928 3.342,-10.63628 -0.47038,-3.39421 -2.18955,-6.90287 -4.1203,-8.40913 -0.30433,-0.23742 -0.83005,-0.65414 -1.16827,-0.92604 l -0.61493,-0.49436 0.53444,-2.20885 c 0.45735,-1.89032 0.50092,-2.58989 0.30213,-4.85106 -0.12775,-1.45321 -0.2723,-2.67409 -0.32119,-2.71306 -0.54501,-0.43443 -1.29144,-0.52271 -2.95515,-0.34952 -6.07952,0.63288 -6.15939,0.62 -8.38116,-1.3509 l -1.07118,-0.95023 -0.13389,0.91714 c -0.1769,1.21162 -0.87133,1.33908 -1.50662,0.27652 -0.73053,-1.22187 -0.98713,-0.98708 -0.77892,0.71277 0.21964,1.79325 0.64939,2.54656 1.78324,3.12587 1.03807,0.53037 1.43437,0.21954 1.03691,-0.81331 -0.57023,-1.48181 0.20795,-1.75695 1.56502,-0.55334 0.80219,0.71148 2.27294,3.61763 1.97821,3.90883 -0.26596,0.26277 -4.90672,-0.40354 -6.14952,-0.88293 -0.68388,-0.2638 -0.93577,-0.26593 -1.19466,-0.0101 -0.49299,0.48707 0.51888,1.35725 1.80947,1.55611 0.58034,0.0894 1.35644,0.36965 1.72466,0.62273 0.36821,0.25307 1.09127,0.63964 1.60677,0.85904 0.5155,0.21939 1.1783,0.58794 1.47288,0.81899 0.75326,0.59082 0.22973,0.86952 -2.06018,1.09673 -1.37432,0.13636 -1.89904,0.3026 -2.09459,0.66358 -0.14349,0.26491 -0.95448,1.13586 -1.80219,1.93545 -0.84772,0.79959 -1.90284,2.05625 -2.3447,2.79256 -0.44187,0.73631 -0.9239,1.30196 -1.07119,1.257 -0.14728,-0.045 -0.3456,-0.93288 -0.44072,-1.97315 -0.29855,-3.26528 -1.74696,-4.81287 -4.50441,-4.81287 -2.59766,0 -4.19631,1.67137 -4.65995,4.87195 -0.31544,2.17755 -0.77405,1.95949 -3.1152,-1.48119 -1.94659,-2.86083 -2.58688,-3.20361 -5.69065,-3.04658 -2.54695,0.12886 -2.76158,-0.007 -1.84549,-1.1684 1.31639,-1.66886 1.43808,-2.22566 1.23745,-5.66235 -0.12301,-2.10715 -0.0915,-3.41517 0.09,-3.73561 0.21075,-0.37207 0.17429,-0.60777 -0.14853,-0.96021 -0.59234,-0.64668 -0.14943,-2.47676 1.39181,-5.75095 0.65075,-1.38244 1.25584,-2.93026 1.34464,-3.43958 0.31998,-1.83528 1.25738,-3.26522 2.54958,-3.88922 1.54978,-0.74839 2.07122,-1.26974 2.29409,-2.29376 0.32056,-1.47283 1.62785,-3.98281 2.4899,-4.78058 0.82285,-0.7615 1.04224,-1.54085 0.61909,-2.19925 -0.3672,-0.57136 0.30323,-4.08622 0.8278,-4.33989 1.50956,-0.72999 1.40912,-0.38609 1.30105,-4.45448 -0.0665,-2.50487 -0.22356,-4.00722 -0.467,-4.46817 -0.20171,-0.38194 -0.36749,-1.00525 -0.36839,-1.38512 -8.1e-4,-0.37988 -0.30292,-1.12931 -0.67114,-1.665399 -0.36823,-0.536092 -0.66949,-1.091884 -0.66949,-1.235092 0,-0.709259 -1.70739,-3.464411 -2.63353,-4.249621 -2.08447,-1.767295 -3.77567,-4.113202 -4.88847,-6.780954 -0.44637,-1.070114 -0.74342,-1.427901 -1.28281,-1.545117 -0.38606,-0.0839 -1.06346,-0.254183 -1.50532,-0.378415 -0.44186,-0.124232 -1.76745,-0.209148 -2.94575,-0.188703 -1.82738,0.03171 -2.35892,-0.06736 -3.615228,-0.673817 -0.810082,-0.391045 -1.801713,-0.712155 -2.203625,-0.713576 -0.703295,-0.0025 -0.676031,0.04978 0.725636,1.391116 l 1.456386,1.393701 -0.420697,1.318278 c -0.722863,2.265124 -1.372781,4.211312 -1.55538,4.657601 -0.100577,0.245827 0.0098,0.612007 0.258683,0.857866 0.23879,0.235928 0.362543,0.543461 0.275001,0.683406 -0.400389,0.640072 0.215062,1.597559 1.387237,2.158193 1.077897,0.515547 1.352227,0.546128 2.516727,0.280554 l 1.30697,-0.298064 1.39862,1.318007 c 0.86142,0.811761 1.63932,1.318007 2.02527,1.318007 0.34465,0 1.10185,0.37731 1.68266,0.838466 0.98495,0.782033 1.02701,0.870143 0.62492,1.309123 -0.39956,0.43621 -0.38214,0.51549 0.23809,1.0834 0.36806,0.33701 0.85162,1.21967 1.07458,1.96147 0.50297,1.67336 0.99911,2.48042 1.52497,2.48059 0.22233,7e-5 1.05471,0.2444 1.84976,0.54296 1.01142,0.3798 1.53014,0.45922 1.72728,0.26445 0.15497,-0.15311 0.37815,-0.27838 0.49599,-0.27838 0.37924,0 0.22797,0.98228 -0.20607,1.33819 -0.23947,0.19635 -0.36061,0.57023 -0.28155,0.86892 0.31336,1.18393 -0.95293,1.99944 -1.7083,1.10019 -0.43048,-0.51246 -1.50458,-0.51246 -1.70363,0 -0.0848,0.21828 -0.33638,0.39687 -0.55913,0.39687 -0.41934,0 -0.76949,-0.95296 -0.776,-2.11193 -0.003,-0.53507 -0.26327,-0.78998 -1.32231,-1.29511 -1.1706,-0.55834 -1.43563,-0.59426 -2.36179,-0.32011 -0.59329,0.17563 -1.04322,0.4754 -1.04322,0.69506 0,0.21244 0.11193,0.38626 0.24873,0.38626 0.1368,0 0.6922,0.41323 1.23421,0.91828 0.54202,0.50506 1.32993,1.13375 1.75091,1.39711 0.42099,0.26335 1.07121,1.01098 1.44494,1.6614 1.86404,3.24415 2.06575,4.10063 1.58407,6.72609 -0.23876,1.30131 -0.25757,1.32077 -2.78299,2.87825 -1.39842,0.86245 -3.30219,1.96764 -4.23061,2.45599 l -1.68804,0.8879 -2.1274,-1.05681 -2.127385,-1.0568 -1.451756,0.80949 c -0.798468,0.44522 -1.59682,0.98219 -1.774117,1.19325 -0.515516,0.61371 -1.60155,0.45132 -3.745673,-0.56009 -3.390252,-1.59921 -4.840913,-2.67013 -6.117355,-4.51598 -0.990311,-1.43209 -1.144022,-1.82474 -0.997605,-2.54832 0.290025,-1.43328 1.846305,-3.44282 3.539035,-4.56976 0.86589,-0.57647 2.39102,-1.73274 3.389178,-2.56948 0.998153,-0.83675 1.922382,-1.52136 2.053843,-1.52136 0.131459,0 0.429636,-0.0723 0.662612,-0.1606 0.298019,-0.11298 0.423596,-0.006 0.423596,0.3612 0,0.95415 1.018057,1.91607 2.027903,1.91607 0.504817,0 0.917848,0.11231 0.917848,0.24958 0,0.35291 -1.102741,1.07334 -1.642931,1.07334 -0.395686,0 -0.353635,0.25387 0.334552,2.01963 0.795478,2.04104 1.688118,3.53662 2.110844,3.53662 0.495251,0 2.744721,-3.31812 4.390041,-6.47558 1.6012,-3.07281 1.69197,-3.33673 1.23141,-3.58026 -0.74834,-0.3957 -1.03552,-0.33058 -2.10066,0.47631 -0.5367,0.40658 -1.28277,0.86927 -1.65792,1.0282 -0.61277,0.25961 -0.72783,0.21024 -1.132057,-0.48564 -0.566888,-0.9759 -2.051059,-1.59935 -3.775968,-1.58615 -0.862625,0.007 -1.436768,-0.12491 -1.621761,-0.37149 -0.157509,-0.20995 -0.828666,-0.53525 -1.49146,-0.72289 -1.075416,-0.30447 -1.214134,-0.43296 -1.289238,-1.19422 -0.07552,-0.76548 7.8e-5,-0.86969 0.736439,-1.01519 1.137678,-0.22481 1.043065,-0.81645 -0.317536,-1.98563 -0.996313,-0.85615 -1.096339,-1.03838 -0.802747,-1.46243 0.18446,-0.26642 0.45262,-0.752298 0.595912,-1.07972 0.14329,-0.327422 0.384018,-0.595312 0.534951,-0.595312 0.150932,0 0.274423,-0.178594 0.274423,-0.396875 0,-0.246945 -0.252916,-0.396875 -0.669488,-0.396875 -0.729346,0 -0.847415,-0.247541 -0.35168,-0.73733 0.245212,-0.242272 0.170353,-0.469071 -0.327728,-0.992893 -0.838731,-0.882079 -0.387396,-1.201754 1.40121,-0.992461 1.283635,0.150204 1.286664,0.148699 1.286664,-0.639038 0,-0.455426 -0.228274,-0.993704 -0.539377,-1.271871 -0.321791,-0.287725 -0.4791,-0.669911 -0.389954,-0.947412 0.08825,-0.27471 -0.02675,-0.562541 -0.280874,-0.703055 -0.939473,-0.519448 0.295178,-2.48106 1.792641,-2.84815 0.638281,-0.156468 0.725823,-0.09398 0.803387,0.573437 0.09449,0.813101 1.024337,1.263413 1.024337,0.496076 0,-0.23572 0.36076,-0.631403 0.801693,-0.879297 1.045643,-0.587865 1.013087,-1.026129 -0.189513,-2.551204 -0.934978,-1.185691 -1.055358,-1.253236 -2.008467,-1.126931 -0.756701,0.100278 -1.013873,0.04008 -1.013873,-0.23734 0,-1.15488 -2.806125,0.289725 -5.135043,2.643542 -1.088363,1.099999 -2.818505,2.569852 -3.844759,3.266341 l -1.865915,1.266342 -0.02662,1.980726 c -0.0285,2.120893 -1.099177,5.96563 -1.874672,6.73182 -0.962487,0.95095 -1.208529,3.81691 -0.441925,5.14767 0.570282,0.98995 0.985153,1.02892 1.569737,0.14743 0.430744,-0.64951 0.454733,-0.65422 0.806346,-0.15824 0.676322,0.954 4.349682,1.79208 4.787447,1.09225 0.09103,-0.14552 0.399411,-0.26458 0.685294,-0.26458 0.67527,0 0.658734,0.50929 -0.0859,2.64583 -0.526699,1.51123 -0.704938,1.7505 -1.469725,1.97295 -0.508073,0.14778 -0.870335,0.4277 -0.870335,0.67251 0,0.23066 -0.55223,0.95017 -1.227179,1.59893 -0.674949,0.64877 -1.474439,1.65582 -1.776646,2.23791 -0.302205,0.58208 -0.678342,1.13988 -0.83586,1.23956 -0.202909,0.1284 -0.201363,0.35978 0.0053,0.79375 0.160429,0.33688 0.299423,0.89901 0.308875,1.24917 0.0094,0.35016 0.422229,1.06454 0.917273,1.5875 0.495046,0.52297 1.219423,1.44723 1.609726,2.05392 0.811458,1.26134 2.2268,2.41456 3.316869,2.70259 0.537404,0.142 0.793525,0.41471 0.914678,0.97391 0.291391,1.34494 0.968198,2.66717 1.906205,3.72402 0.498603,0.56178 1.296136,1.77204 1.77229,2.68947 0.476156,0.91744 1.290978,2.27884 1.81071,3.02534 0.677412,0.97297 0.922255,1.58693 0.864738,2.16839 l -0.08023,0.81113 -1.874568,0.0318 c -1.031013,0.0175 -2.416855,0.23374 -3.079648,0.48055 -0.662794,0.24681 -1.446096,0.51679 -1.740671,0.59993 -1.139831,0.32174 -2.353443,1.51499 -3.075881,3.02426 -0.409132,0.85473 -1.300401,2.19767 -1.980596,2.98429 -1.371228,1.58579 -1.579383,2.44043 -0.634178,2.6038 0.427498,0.0739 0.485846,0.14524 0.200848,0.24562 -1.640554,0.57782 -2.47904,0.75943 -2.898676,0.62784 -0.833256,-0.26129 -9.573041,0.30687 -10.144518,0.65949 -0.290636,0.17933 -0.879163,0.84251 -1.307839,1.47373 -0.428679,0.63122 -0.860403,1.15029 -0.959393,1.1535 -0.09899,0.003 -0.597934,-0.47662 -1.108767,-1.06625 -1.634589,-1.88675 -3.510111,-2.47332 -5.852753,-1.83045 -2.046719,0.56165 -3.456041,3.34511 -2.880867,5.6898 0.871833,3.55403 0.357895,9.43589 -0.900573,10.30679 -0.664925,0.46014 -1.612669,0.51594 -2.329095,0.13712 -0.929678,-0.49158 -1.090944,-1.77838 -1.014495,-8.09502 0.08204,-6.77925 0.05072,-6.91577 -1.853753,-8.07868 -0.816802,-0.49876 -1.180574,-0.55002 -2.890048,-0.40725 -2.591687,0.21645 -2.75789,0.0343 -2.275233,-2.49296 0.194764,-1.01983 0.454263,-1.91539 0.576663,-1.99013 0.1224,-0.0747 0.222545,-0.70296 0.222545,-1.39606 0,-0.69309 0.194995,-1.82558 0.433322,-2.51664 l 0.433321,-1.25648 1.240401,0.0849 1.2404,0.0849 0.185065,-2.11667 c 0.319991,-3.65988 1.436642,-8.5044 2.197078,-9.53189 0.236978,-0.3202 0.715053,-0.49253 1.399082,-0.50434 l 1.039094,-0.0179 0.133898,-2.11667 c 0.07364,-1.16417 0.248669,-2.29312 0.388944,-2.50878 0.140276,-0.21566 0.269077,-1.16816 0.286225,-2.11666 0.03696,-2.04448 0.69377,-3.87588 1.687021,-4.70396 0.394602,-0.32899 1.530887,-1.14851 2.525077,-1.82115 3.272185,-2.21387 1.936256,-2.23318 -2.968469,-0.0429 -1.681671,0.75097 -3.16521,1.49312 -3.296757,1.64922 -0.876055,1.03956 -3.625718,5.04625 -4.619815,6.73181 -1.828001,3.09949 -2.651057,6.51928 -2.428036,10.08846 0.358083,5.73066 0.32574,7.14018 -0.205446,8.95353 -1.143489,3.90363 -1.348168,6.38155 -1.282002,15.52043 0.04688,6.47554 0.286808,8.41027 1.312431,10.58333 1.802796,3.81973 4.430375,5.36776 9.175158,5.40553 1.634564,0.013 2.846926,-0.14389 4.12472,-0.53383 z m 74.326434,-6.64645 c -0.99807,-0.53017 -1.67839,-1.62187 -1.82802,-2.9334 -0.13385,-1.1734 -0.10328,-1.23107 1.5689,-2.95877 0.93798,-0.96913 1.7965,-1.92283 1.90781,-2.11935 0.27334,-0.48258 2.48851,-1.2967 3.00028,-1.10267 0.71767,0.2721 1.48246,1.83213 1.48351,3.02612 0.001,1.34892 -1.39182,5.07596 -2.15083,5.75462 -0.67655,0.60492 -3.09009,0.80705 -3.98165,0.33345 z m -56.622252,-7.79664 c -0.397632,-0.39286 -0.161639,-1.14423 0.359384,-1.14423 0.294575,0 0.535591,0.16401 0.535591,0.36448 0,0.44874 -0.653622,1.01821 -0.894975,0.77975 z M 101.5904,146.72823 c 0,-0.57368 1.06067,-2.64258 1.2559,-2.44969 0.29287,0.28935 -0.20738,1.9606 -0.72555,2.42391 -0.48825,0.43656 -0.53035,0.43861 -0.53035,0.0258 z m -3.481343,-12.52604 c -0.771958,-0.13881 -1.606773,-0.79952 -1.606773,-1.27167 0,-0.17807 0.331397,-0.45103 0.736438,-0.60657 0.902752,-0.34667 5.161958,-0.51804 5.623708,-0.22627 0.68862,0.43513 0.28614,0.91504 -1.33898,1.59657 -1.640537,0.68799 -2.063309,0.75089 -3.414393,0.50794 z m -14.996548,-16.4763 c 0,-0.3985 0.13983,-0.54136 0.468643,-0.4788 0.257753,0.049 0.468642,0.2645 0.468642,0.4788 0,0.21429 -0.210889,0.42975 -0.468642,0.4788 -0.328813,0.0626 -0.468643,-0.0803 -0.468643,-0.4788 z m 30.796481,-1.07395 c 0,-0.15411 0.12051,-0.20661 0.26779,-0.11668 0.14729,0.0899 0.2678,0.21603 0.2678,0.2802 0,0.0642 -0.12051,0.11668 -0.2678,0.11668 -0.14728,0 -0.26779,-0.12609 -0.26779,-0.2802 z m -13.925367,-3.52387 c 0,-0.0549 0.210887,-0.2633 0.468647,-0.46302 0.42473,-0.3291 0.43421,-0.31974 0.10111,0.0999 -0.34984,0.44073 -0.569747,0.58089 -0.569747,0.36312 z m -15.383844,-7.71471 c -0.411002,-0.30711 -0.451911,-0.45791 -0.193477,-0.71325 0.398937,-0.39415 1.204073,0.0183 1.336848,0.68486 0.106682,0.53555 -0.446276,0.54927 -1.143371,0.0284 z m -0.777778,-2.30114 c -0.123919,-0.46819 -0.224846,-0.52308 -0.486485,-0.26458 -0.505512,0.49945 -0.814716,0.3885 -0.618607,-0.22196 0.112139,-0.34909 0.008,-0.7316 -0.28671,-1.05337 -0.378157,-0.41285 -0.401062,-0.57873 -0.125245,-0.90708 0.47242,-0.56241 1.343147,-0.51431 1.343147,0.0742 0,0.38843 0.172843,0.4561 0.939228,0.3677 0.577991,-0.0667 1.192348,0.0555 1.597351,0.31771 0.361967,0.23433 0.843126,0.42605 1.069239,0.42605 0.451074,0 0.569443,0.93042 0.150884,1.186 -0.143129,0.0874 -0.547926,-0.0273 -0.899552,-0.25497 -0.740257,-0.47921 -1.42762,-0.30682 -1.659923,0.41633 -0.221092,0.68824 -0.831983,0.63689 -1.023327,-0.086 z m 31.158169,-1.54153 c 0,-0.29963 0.1205,-0.4712 0.2678,-0.38126 0.14729,0.0899 0.26779,0.33509 0.26779,0.54478 0,0.20969 -0.1205,0.38126 -0.26779,0.38126 -0.1473,0 -0.2678,-0.24515 -0.2678,-0.54478 z m -4.82032,-0.79375 c 0,-0.15411 0.1205,-0.20661 0.2678,-0.11668 0.14729,0.0899 0.26779,0.21603 0.26779,0.2802 0,0.0642 -0.1205,0.11668 -0.26779,0.11668 -0.1473,0 -0.2678,-0.12609 -0.2678,-0.2802 z m -0.13876,-1.322459 c -0.0962,-0.299377 -0.43569,-0.661038 -0.75448,-0.80369 -1.05068,-0.470148 -3.75887,-2.254464 -3.85522,-2.540042 -0.1332,-0.394794 0.76362,-0.683983 1.09767,-0.353952 0.42629,0.421183 0.90091,0.32741 1.4866,-0.293716 0.51205,-0.543024 0.5639,-0.548021 1.22771,-0.118297 0.96629,0.625541 1.40205,1.634527 0.9885,2.288784 -0.47917,0.758088 -0.38857,1.306903 0.21578,1.306903 0.35705,0 0.53559,0.176389 0.53559,0.529167 0,0.694842 -0.71778,0.683302 -0.94215,-0.01516 z M 83.810649,97.463623 c -0.0894,-0.230183 -0.162548,-0.825496 -0.162548,-1.322916 0,-0.686491 0.112918,-0.903426 0.468642,-0.900351 0.762111,0.0066 1.141272,0.357712 0.860301,0.796681 -0.137258,0.214441 -0.251407,0.717314 -0.253662,1.117496 -0.0045,0.796656 -0.639803,1.0118 -0.912733,0.30909 z m 4.65777,-4.447969 c 0,-0.05719 0.180763,-0.172518 0.401694,-0.25628 0.220931,-0.08376 0.401693,-0.03697 0.401693,0.103984 0,0.140954 -0.180762,0.25628 -0.401693,0.25628 -0.220931,0 -0.401694,-0.04679 -0.401694,-0.103984 z m 15.376511,-0.253415 c -0.0763,-0.196569 -0.10269,-0.521164 -0.0585,-0.721322 0.045,-0.204053 -0.17589,-0.40272 -0.50282,-0.452236 -0.32071,-0.04857 -0.73005,-0.263248 -0.90964,-0.477059 -0.26452,-0.314903 -0.20848,-0.51292 0.29503,-1.042449 0.72344,-0.760837 1.06964,-0.80113 2.14828,-0.250032 0.97061,0.4959 1.04357,1.395683 0.20413,2.51746 -0.64144,0.857191 -0.96355,0.973735 -1.17644,0.425638 z M 88.914372,91.778862 c -0.468361,-0.660661 -0.554177,-1.247714 -0.284057,-1.943196 0.141785,-0.36505 0.258222,-0.349065 0.937285,0.128669 0.90231,0.634795 0.9613,1.017758 0.284055,1.844086 l -0.491329,0.599491 z m 17.847618,-0.96396 c 0.037,-0.52769 -0.0911,-0.74562 -0.48518,-0.824643 -0.29457,-0.05907 -0.84376,-0.323399 -1.22041,-0.587388 -0.56554,-0.396374 -0.66539,-0.644469 -0.57324,-1.424315 0.0764,-0.646966 0.004,-0.944335 -0.23014,-0.944335 -0.18796,0 -0.27312,-0.06778 -0.18927,-0.15063 0.41129,-0.406355 2.44636,0.578293 3.28492,1.589375 1.18597,1.429944 1.43203,2.39103 0.70994,2.772849 -0.93278,0.493219 -1.35179,0.353968 -1.29662,-0.430913 z m -4.40549,-3.503011 c 0.34772,-0.298239 0.8197,-0.542253 1.04887,-0.542253 0.52455,0 0.42003,0.09007 -0.74379,0.640896 l -0.93728,0.443611 z m 12.3093,56.361299 c 0.72173,-0.28107 1.69803,-0.74283 2.16955,-1.02614 l 0.85732,-0.51512 -2.09269,-1.109 c -1.15097,-0.60995 -2.64824,-1.64535 -3.32725,-2.30088 l -1.23456,-1.19189 -0.17136,0.84657 c -0.28827,1.42405 -0.19442,2.07252 0.34091,2.35558 0.42521,0.22484 1.04938,1.50878 1.5173,3.12118 0.12903,0.44461 0.40103,0.41934 1.94078,-0.1803 z m 28.30961,-6.40117 c 0.16724,-0.5206 -0.19078,-1.01003 -0.74704,-1.02125 -0.24226,-0.005 -0.2618,0.58951 -0.0383,1.16494 0.22702,0.58452 0.57166,0.52146 0.78534,-0.14369 z m -13.48519,-0.55346 c -0.19216,-0.18985 -0.31689,-0.20548 -0.31689,-0.0397 0,0.35316 0.3167,0.66606 0.49543,0.48948 0.0761,-0.0752 -0.004,-0.27759 -0.17854,-0.44979 z m 14.09368,-1.46099 c -0.10092,-0.51767 -0.82376,-0.73703 -1.50508,-0.45674 -0.37272,0.15334 -0.31062,0.24897 0.35038,0.53961 1.07636,0.47326 1.26052,0.46005 1.1547,-0.0829 z m -14.27667,-0.33377 c 0.091,-0.14552 0.0378,-0.26458 -0.1181,-0.26458 -0.15597,0 -0.28359,0.11906 -0.28359,0.26458 0,0.14553 0.0531,0.26459 0.11809,0.26459 0.065,0 0.19257,-0.11906 0.2836,-0.26459 z m -66.061975,-2.31206 c -0.134437,-0.6897 -1.020794,-0.76662 -1.020794,-0.0886 0,0.37864 0.171987,0.54856 0.555225,0.54856 0.383242,0 0.527456,-0.14248 0.465569,-0.45998 z m 76.939675,-0.43243 c -0.32833,-0.3453 -1.07672,-0.84156 -1.66307,-1.1028 -1.01103,-0.45044 -1.11576,-0.45159 -2.02693,-0.0223 -0.52844,0.24898 -0.90208,0.51072 -0.83028,0.58165 0.19939,0.197 3.73232,1.09479 4.46803,1.13542 l 0.64922,0.0359 -0.59697,-0.62782 z M 89.271806,121.9507 c 0,-0.29733 -1.121643,-0.80049 -1.338557,-0.60047 -0.151546,0.13975 0.790915,0.87357 1.121945,0.87357 0.119137,0 0.216612,-0.12289 0.216612,-0.2731 z m 13.369764,-0.62912 c 0.4891,-0.58225 0.26693,-3.96583 -0.26699,-4.06629 -0.63657,-0.11978 -1.06291,1.08834 -0.89007,2.52215 0.24534,2.03518 0.48073,2.3493 1.15706,1.54414 z m -3.193535,-1.26524 c 0,-0.6573 -0.09463,-0.76648 -0.60254,-0.69521 -0.69667,0.0978 -0.961721,1.08505 -0.45367,1.68987 0.463404,0.55167 1.05621,-0.007 1.05621,-0.99466 z m -10.761277,-1.01411 c 0.645222,-0.308 1.391803,-0.95473 1.756235,-1.52136 0.348651,-0.54208 0.873865,-1.1975 1.167144,-1.45647 0.845548,-0.74664 1.566339,-2.53312 1.233664,-3.05762 -0.311419,-0.49099 -1.184508,-0.69071 -2.064984,-0.47237 -0.883474,0.21907 -2.227177,1.65118 -3.257971,3.4723 -0.985575,1.74123 -1.092115,2.24289 -0.649779,3.05949 0.34483,0.63659 0.43436,0.63541 1.815691,-0.024 z m 22.276482,-3.03613 c -0.18926,-0.22532 -0.40437,-0.35014 -0.47802,-0.27737 -0.0737,0.0728 0.0209,0.31664 0.21022,0.54195 0.18926,0.22531 0.40437,0.35013 0.47802,0.27737 0.0737,-0.0728 -0.0209,-0.31664 -0.21022,-0.54195 z m -29.849508,-1.4707 c 0.09799,-0.15664 0.503606,-0.20881 0.920349,-0.11838 0.656,0.14236 0.897137,-0.0141 2.015501,-1.30742 0.698695,-0.80802 1.42329,-1.46913 1.610218,-1.46913 0.191505,0 0.39559,-0.43311 0.467521,-0.99219 0.09854,-0.76587 -0.02006,-1.18832 -0.519922,-1.85208 -0.743885,-0.98778 -1.150842,-1.06717 -1.805683,-0.35226 -0.45816,0.50019 -0.472774,0.49995 -0.995527,-0.0165 -0.800794,-0.79119 -1.104435,-0.48846 -1.179028,1.17551 -0.06688,1.49198 0.219164,2.00306 0.548065,0.97922 0.241771,-0.75262 0.847278,-0.65491 1.056975,0.17056 0.238335,0.93822 -0.182953,1.32937 -1.024002,0.95076 -0.88666,-0.39915 -1.524179,0.31475 -1.706246,1.91065 -0.130582,1.14463 0.179742,1.61196 0.611779,0.92129 z m 26.635958,-0.91055 c 0,-0.22049 0.23805,-0.39688 0.53559,-0.39688 0.70423,0 0.71688,-0.94386 0.0176,-1.31361 -1.3794,-0.72937 -1.95965,-0.12126 -1.36322,1.42868 0.284,0.73796 0.81003,0.92097 0.81003,0.28181 z m -5.62371,-11.2448 c 0,-0.14552 -0.5494,-0.26458 -1.22088,-0.26458 -0.74573,0 -1.156467,0.10297 -1.055367,0.26458 0.091,0.14553 0.640417,0.26459 1.220877,0.26459 0.58046,0 1.05537,-0.11906 1.05537,-0.26459 z"
         id="path4606"
         inkscape:connector-curvature="0"
         sodipodi:nodetypes="ccccccccccsccscscscccccssccccsccccccsccccscccscccccccccccccccscccsccccccccscccscccscccsccccccccccccssccccccccscccsscsccccccsscccccccscccscccccccccssccsccccccssccccscscssscsccccccscccsscscsssscssccccccccccccsssccsscccccssssssscscccccsscscccccccccccccccscccccccccccscsscsccsccccscccssscccccscscccccccccccccsscsscsscsccccscscsscssscccccccccccccccsccscccccscsssscssscscccccssccsscccsscssscccccccccccccccccccscccccscccccccccccccccccccssccccccccsssccsscccccsccccscssccccscsscccscsscccccsccccsccccscccccccsccccsscss" />
    </g>
  </g>
</svg>
