<?xml version="1.0" encoding="UTF-8" standalone="no"?>
<!-- Generator: Adobe Illustrator 19.0.0, SVG Export Plug-In . SVG Version: 6.00 Build 0)  -->

<svg
   xmlns:dc="http://purl.org/dc/elements/1.1/"
   xmlns:cc="http://creativecommons.org/ns#"
   xmlns:rdf="http://www.w3.org/1999/02/22-rdf-syntax-ns#"
   xmlns:svg="http://www.w3.org/2000/svg"
   xmlns="http://www.w3.org/2000/svg"
   xmlns:sodipodi="http://sodipodi.sourceforge.net/DTD/sodipodi-0.dtd"
   xmlns:inkscape="http://www.inkscape.org/namespaces/inkscape"
   version="1.1"
   id="Layer_1"
   x="0px"
   y="0px"
   viewBox="0 0 500 500"
   style="enable-background:new 0 0 500 500;"
   xml:space="preserve"
   sodipodi:docname="copyleft.svg"
   inkscape:version="0.92.5 (2060ec1f9f, 2020-04-08)"><metadata
   id="metadata9"><rdf:RDF><cc:Work
       rdf:about=""><dc:format>image/svg+xml</dc:format><dc:type
         rdf:resource="http://purl.org/dc/dcmitype/StillImage" /></cc:Work></rdf:RDF></metadata><defs
   id="defs7" /><sodipodi:namedview
   pagecolor="#ffffff"
   bordercolor="#666666"
   borderopacity="1"
   objecttolerance="10"
   gridtolerance="10"
   guidetolerance="10"
   inkscape:pageopacity="0"
   inkscape:pageshadow="2"
   inkscape:window-width="1366"
   inkscape:window-height="698"
   id="namedview5"
   showgrid="false"
   inkscape:zoom="0.472"
   inkscape:cx="250"
   inkscape:cy="250"
   inkscape:window-x="0"
   inkscape:window-y="34"
   inkscape:window-maximized="1"
   inkscape:current-layer="Layer_1" />
<g
   id="XMLID_1_"
   style="fill:#ffffff;fill-opacity:1">
	<path
   id="XMLID_2_"
   d="M250,432.5c100.8,0,182.5-81.7,182.5-182.5S350.8,67.5,250,67.5S67.5,149.2,67.5,250S149.2,432.5,250,432.5z    M250,395.3c-80.2,0-145.3-65-145.3-145.3s65-145.3,145.3-145.3s145.3,65,145.3,145.3S330.2,395.3,250,395.3z M248.5,147.6   c-48.4,0-89,33.9-99.4,79.3h48.8c8.9-19.4,28.3-32.8,50.7-32.8c30.9,0,55.9,25,55.9,55.9s-25,55.9-55.9,55.9   c-22.3,0-41.7-13.4-50.7-32.4h-48.8c10.4,45.1,51,79,99.4,79c56.6,0,102.4-45.8,102.4-102.4S305.1,147.6,248.5,147.6z"
   style="fill:#ffffff;fill-opacity:1" />
</g>
</svg>